<mxfile host="app.diagrams.net" modified="2023-12-13T15:43:40.274Z" agent="Mozilla/5.0 (Macintosh; Intel Mac OS X 10_15_7) AppleWebKit/537.36 (KHTML, like Gecko) Chrome/120.0.0.0 Safari/537.36" etag="4uulCwkFpzLisgJV-4FP" version="22.1.8" type="device">
  <diagram name="Seite-1" id="xa_oGDJEwSHOwQFdE7kF">
    <mxGraphModel dx="948" dy="502" grid="1" gridSize="10" guides="1" tooltips="1" connect="1" arrows="1" fold="1" page="1" pageScale="1" pageWidth="827" pageHeight="1169" math="0" shadow="0">
      <root>
        <mxCell id="0" />
        <mxCell id="1" parent="0" />
        <mxCell id="TMElT5WB7t-eJnyOjiA0-1" value="&lt;font style=&quot;font-size: 8px;&quot;&gt;Business&lt;/font&gt;" style="ellipse;whiteSpace=wrap;html=1;aspect=fixed;" vertex="1" parent="1">
          <mxGeometry x="130" y="190" width="80" height="80" as="geometry" />
        </mxCell>
        <mxCell id="TMElT5WB7t-eJnyOjiA0-5" style="edgeStyle=orthogonalEdgeStyle;rounded=0;orthogonalLoop=1;jettySize=auto;html=1;exitX=1;exitY=0.588;exitDx=0;exitDy=0;exitPerimeter=0;entryX=0;entryY=0.5;entryDx=0;entryDy=0;" edge="1" parent="1" source="TMElT5WB7t-eJnyOjiA0-1" target="TMElT5WB7t-eJnyOjiA0-2">
          <mxGeometry relative="1" as="geometry">
            <mxPoint x="290" y="310" as="targetPoint" />
          </mxGeometry>
        </mxCell>
        <mxCell id="TMElT5WB7t-eJnyOjiA0-6" value="has" style="edgeLabel;html=1;align=center;verticalAlign=middle;resizable=0;points=[];" vertex="1" connectable="0" parent="TMElT5WB7t-eJnyOjiA0-5">
          <mxGeometry x="-0.0563" y="-1" relative="1" as="geometry">
            <mxPoint as="offset" />
          </mxGeometry>
        </mxCell>
        <mxCell id="TMElT5WB7t-eJnyOjiA0-2" value="&lt;font style=&quot;font-size: 8px;&quot;&gt;GeoCoordinates&lt;/font&gt;" style="ellipse;whiteSpace=wrap;html=1;aspect=fixed;" vertex="1" parent="1">
          <mxGeometry x="334" y="90" width="80" height="80" as="geometry" />
        </mxCell>
        <mxCell id="TMElT5WB7t-eJnyOjiA0-7" value="&lt;font style=&quot;font-size: 8px;&quot;&gt;latitude&lt;/font&gt;" style="ellipse;whiteSpace=wrap;html=1;aspect=fixed;" vertex="1" parent="1">
          <mxGeometry x="440" y="50" width="40" height="40" as="geometry" />
        </mxCell>
        <mxCell id="TMElT5WB7t-eJnyOjiA0-8" value="&lt;font style=&quot;font-size: 8px;&quot;&gt;longitude&lt;/font&gt;" style="ellipse;whiteSpace=wrap;html=1;aspect=fixed;" vertex="1" parent="1">
          <mxGeometry x="480" y="100" width="40" height="40" as="geometry" />
        </mxCell>
        <mxCell id="TMElT5WB7t-eJnyOjiA0-9" value="" style="edgeStyle=segmentEdgeStyle;endArrow=classic;html=1;curved=0;rounded=0;endSize=8;startSize=8;entryX=0;entryY=1;entryDx=0;entryDy=0;exitX=0.7;exitY=0.988;exitDx=0;exitDy=0;exitPerimeter=0;" edge="1" parent="1" source="TMElT5WB7t-eJnyOjiA0-2" target="TMElT5WB7t-eJnyOjiA0-8">
          <mxGeometry width="50" height="50" relative="1" as="geometry">
            <mxPoint x="390" y="290" as="sourcePoint" />
            <mxPoint x="440" y="240" as="targetPoint" />
          </mxGeometry>
        </mxCell>
        <mxCell id="TMElT5WB7t-eJnyOjiA0-10" value="has" style="edgeLabel;html=1;align=center;verticalAlign=middle;resizable=0;points=[];" vertex="1" connectable="0" parent="TMElT5WB7t-eJnyOjiA0-9">
          <mxGeometry x="-0.0364" relative="1" as="geometry">
            <mxPoint as="offset" />
          </mxGeometry>
        </mxCell>
        <mxCell id="TMElT5WB7t-eJnyOjiA0-11" value="" style="edgeStyle=segmentEdgeStyle;endArrow=classic;html=1;curved=0;rounded=0;endSize=8;startSize=8;entryX=0;entryY=1;entryDx=0;entryDy=0;" edge="1" parent="1" source="TMElT5WB7t-eJnyOjiA0-2" target="TMElT5WB7t-eJnyOjiA0-7">
          <mxGeometry width="50" height="50" relative="1" as="geometry">
            <mxPoint x="390" y="290" as="sourcePoint" />
            <mxPoint x="440" y="240" as="targetPoint" />
          </mxGeometry>
        </mxCell>
        <mxCell id="TMElT5WB7t-eJnyOjiA0-12" value="has" style="edgeLabel;html=1;align=center;verticalAlign=middle;resizable=0;points=[];" vertex="1" connectable="0" parent="TMElT5WB7t-eJnyOjiA0-11">
          <mxGeometry x="0.1806" y="1" relative="1" as="geometry">
            <mxPoint as="offset" />
          </mxGeometry>
        </mxCell>
        <mxCell id="TMElT5WB7t-eJnyOjiA0-13" value="&lt;font style=&quot;font-size: 8px;&quot;&gt;MenuItem&lt;/font&gt;" style="ellipse;whiteSpace=wrap;html=1;aspect=fixed;" vertex="1" parent="1">
          <mxGeometry x="280" y="360" width="80" height="80" as="geometry" />
        </mxCell>
        <mxCell id="TMElT5WB7t-eJnyOjiA0-14" style="edgeStyle=orthogonalEdgeStyle;rounded=0;orthogonalLoop=1;jettySize=auto;html=1;exitX=0.5;exitY=1;exitDx=0;exitDy=0;entryX=0.675;entryY=0;entryDx=0;entryDy=0;entryPerimeter=0;" edge="1" parent="1" source="TMElT5WB7t-eJnyOjiA0-1" target="TMElT5WB7t-eJnyOjiA0-13">
          <mxGeometry relative="1" as="geometry">
            <mxPoint x="344" y="140" as="targetPoint" />
            <mxPoint x="220" y="247" as="sourcePoint" />
          </mxGeometry>
        </mxCell>
        <mxCell id="TMElT5WB7t-eJnyOjiA0-15" value="hasMenuItem" style="edgeLabel;html=1;align=center;verticalAlign=middle;resizable=0;points=[];" vertex="1" connectable="0" parent="TMElT5WB7t-eJnyOjiA0-14">
          <mxGeometry x="-0.0563" y="-1" relative="1" as="geometry">
            <mxPoint as="offset" />
          </mxGeometry>
        </mxCell>
      </root>
    </mxGraphModel>
  </diagram>
</mxfile>
